<svg width="120" height="120" viewBox="0 0 120 120" xmlns="http://www.w3.org/2000/svg">
  <!-- Letter K formed by four distinct green leaves -->
  
  <!-- Leaf 1: Top vertical stem (pointing up and slightly left) -->
  <path d="M 25 15 Q 20 10, 15 15 Q 12 25, 15 35 Q 18 42, 25 50 Q 22 38, 22 30 Q 22 22, 25 15 Z" 
        fill="#4a7c59" 
        stroke="#2d5016" 
        stroke-width="0.3"/>
  <path d="M 25 15 Q 22 22, 21 30" 
        stroke="#ffffff" 
        stroke-width="1.5" 
        fill="none" 
        stroke-linecap="round"/>
  
  <!-- Leaf 2: Bottom vertical stem (pointing down and slightly left) -->
  <path d="M 25 75 Q 20 80, 15 75 Q 12 65, 15 55 Q 18 48, 25 50 Q 22 62, 22 70 Q 22 78, 25 75 Z" 
        fill="#4a7c59" 
        stroke="#2d5016" 
        stroke-width="0.3"/>
  <path d="M 25 75 Q 22 68, 21 60" 
        stroke="#ffffff" 
        stroke-width="1.5" 
        fill="none" 
        stroke-linecap="round"/>
  
  <!-- Leaf 3: Upper diagonal stroke (pointing up and right) -->
  <path d="M 25 50 Q 30 40, 40 30 Q 50 25, 60 30 Q 70 35, 75 45 Q 70 50, 65 48 Q 60 46, 55 47 Q 50 48, 45 49 Q 40 50, 35 50 Q 30 50, 25 50 Z" 
        fill="#4a7c59" 
        stroke="#2d5016" 
        stroke-width="0.3"/>
  <path d="M 25 50 Q 40 38, 55 36 Q 65 38, 70 42" 
        stroke="#ffffff" 
        stroke-width="1.5" 
        fill="none" 
        stroke-linecap="round"/>
  
  <!-- Leaf 4: Lower diagonal stroke (pointing down and right) -->
  <path d="M 25 50 Q 30 60, 40 70 Q 50 75, 60 70 Q 70 65, 75 55 Q 70 50, 65 52 Q 60 54, 55 53 Q 50 52, 45 51 Q 40 50, 35 50 Q 30 50, 25 50 Z" 
        fill="#4a7c59" 
        stroke="#2d5016" 
        stroke-width="0.3"/>
  <path d="M 25 50 Q 40 62, 55 64 Q 65 62, 70 58" 
        stroke="#ffffff" 
        stroke-width="1.5" 
        fill="none" 
        stroke-linecap="round"/>
</svg>
